<svg width="18" height="18" viewBox="0 0 18 18" fill="none" xmlns="http://www.w3.org/2000/svg">
  <path d="M3 8.25C3 6.17893 4.67893 4.5 6.75 4.5C8.82107 4.5 10.5 6.17893 10.5 8.25C10.5 10.3211 8.82107 12 6.75 12C6.33579 12 6 12.3358 6 12.75V13.5H4.5V12.75C4.5 11.5074 5.50736 10.5 6.75 10.5C7.99264 10.5 9 9.49264 9 8.25C9 7.00736 7.99264 6 6.75 6C5.50736 6 4.5 7.00736 4.5 8.25H3Z" fill="white"/>
  <path d="M10.5 8.25C10.5 6.17893 12.1789 4.5 14.25 4.5C16.3211 4.5 18 6.17893 18 8.25C18 10.3211 16.3211 12 14.25 12C13.8358 12 13.5 12.3358 13.5 12.75V13.5H12V12.75C12 11.5074 13.0074 10.5 14.25 10.5C15.4926 10.5 16.5 9.49264 16.5 8.25C16.5 7.00736 15.4926 6 14.25 6C13.0074 6 12 7.00736 12 8.25H10.5Z" fill="white"/>
</svg> 