<svg width="72" height="28" viewBox="0 0 72 28" fill="none" xmlns="http://www.w3.org/2000/svg">
<rect width="72" height="28" fill="black"/>
<path d="M58.5835 23.0419L60.4375 21.0979H64.8835L66.6295 23.0419H58.5835ZM58.0435 14.2039L59.9875 16.0759V20.4859L58.0435 22.2499V14.2039ZM67.2055 22.2499L65.2615 20.3959V15.9679L67.2055 14.2039V22.2499ZM58.5655 4.75391H66.6115L64.8295 6.69791H60.4195L58.5655 4.75391ZM57.9895 13.5739V5.52791L59.9335 7.27391V11.7379L57.9895 13.5739ZM67.1515 5.52791V13.5739L65.2075 11.8279V7.38191L67.1515 5.52791Z" fill="#D2FFD2"/>
<path d="M45.2671 23.0419L47.1211 21.0979H51.5671L53.3131 23.0419H45.2671ZM44.7271 14.2039L46.6711 16.0759V20.4859L44.7271 22.2499V14.2039ZM53.8891 22.2499L51.9451 20.3959V15.9679L53.8891 14.2039V22.2499ZM45.2491 4.75391H53.2951L51.5131 6.69791H47.1031L45.2491 4.75391ZM44.6731 13.5739V5.52791L46.6171 7.27391V11.7379L44.6731 13.5739ZM53.8351 5.52791V13.5739L51.8911 11.8279V7.38191L53.8351 5.52791Z" fill="#D2FFD2"/>
<path d="M34.8306 14.0242H37.0986V16.2742H34.8306V14.0242ZM34.8306 8.67822H37.0986V10.9822H34.8306V8.67822Z" fill="#D2FFD2"/>
<path d="M18.634 23.0419L20.488 21.0979H24.934L26.68 23.0419H18.634ZM18.094 14.2039L20.038 16.0759V20.4859L18.094 22.2499V14.2039ZM27.256 22.2499L25.312 20.3959V15.9679L27.256 14.2039V22.2499ZM18.616 4.75391H26.662L24.88 6.69791H20.47L18.616 4.75391ZM18.04 13.5739V5.52791L19.984 7.27391V11.7379L18.04 13.5739ZM27.202 5.52791V13.5739L25.258 11.8279V7.38191L27.202 5.52791Z" fill="#D2FFD2"/>
<path d="M5.31763 23.0419L7.17163 21.0979H11.6176L13.3636 23.0419H5.31763ZM4.77763 14.2039L6.72163 16.0759V20.4859L4.77763 22.2499V14.2039ZM13.9396 22.2499L11.9956 20.3959V15.9679L13.9396 14.2039V22.2499ZM5.29963 4.75391H13.3456L11.5636 6.69791H7.15363L5.29963 4.75391ZM4.72363 13.5739V5.52791L6.66763 7.27391V11.7379L4.72363 13.5739ZM13.8856 5.52791V13.5739L11.9416 11.8279V7.38191L13.8856 5.52791Z" fill="#D2FFD2"/>
</svg>
