<svg width="134" height="29" viewBox="0 0 134 29" fill="none" xmlns="http://www.w3.org/2000/svg">
<path d="M124.267 28.3934C122.375 28.3934 120.723 27.9598 119.313 27.0926C117.903 26.2255 116.808 25.0123 116.028 23.4531C115.249 21.8939 114.859 20.0719 114.859 17.9872C114.859 15.8937 115.249 14.0629 116.028 12.495C116.808 10.927 117.903 9.70947 119.313 8.84229C120.723 7.9751 122.375 7.5415 124.267 7.5415C126.159 7.5415 127.81 7.9751 129.22 8.84229C130.63 9.70947 131.725 10.927 132.505 12.495C133.284 14.0629 133.674 15.8937 133.674 17.9872C133.674 20.0719 133.284 21.8939 132.505 23.4531C131.725 25.0123 130.63 26.2255 129.22 27.0926C127.81 27.9598 126.159 28.3934 124.267 28.3934ZM124.28 25.0955C125.506 25.0955 126.522 24.7714 127.328 24.1232C128.134 23.475 128.73 22.6122 129.115 21.5348C129.509 20.4573 129.706 19.2704 129.706 17.974C129.706 16.6864 129.509 15.5039 129.115 14.4264C128.73 13.3403 128.134 12.4687 127.328 11.8117C126.522 11.1548 125.506 10.8263 124.28 10.8263C123.045 10.8263 122.02 11.1548 121.205 11.8117C120.399 12.4687 119.799 13.3403 119.405 14.4264C119.02 15.5039 118.827 16.6864 118.827 17.974C118.827 19.2704 119.02 20.4573 119.405 21.5348C119.799 22.6122 120.399 23.475 121.205 24.1232C122.02 24.7714 123.045 25.0955 124.28 25.0955Z" fill="#202222"/>
<path d="M108.771 27.9865V7.80469H112.7V27.9865H108.771ZM110.755 4.6907C110.072 4.6907 109.485 4.46295 108.995 4.00746C108.513 3.54321 108.272 2.99136 108.272 2.35192C108.272 1.70372 108.513 1.15187 108.995 0.696377C109.485 0.232126 110.072 0 110.755 0C111.439 0 112.021 0.232126 112.503 0.696377C112.993 1.15187 113.239 1.70372 113.239 2.35192C113.239 2.99136 112.993 3.54321 112.503 4.00746C112.021 4.46295 111.439 4.6907 110.755 4.6907Z" fill="#202222"/>
<path d="M95.3851 28.3804C93.7558 28.3804 92.3017 27.9643 91.0229 27.1322C89.7527 26.2913 88.7542 25.0956 88.0271 23.5452C87.3088 21.986 86.9497 20.1159 86.9497 17.9347C86.9497 15.7536 87.3132 13.8879 88.0403 12.3374C88.7761 10.787 89.7834 9.60011 91.0623 8.77672C92.3412 7.95333 93.7909 7.54164 95.4114 7.54164C96.664 7.54164 97.6713 7.75187 98.4334 8.17232C99.2042 8.58401 99.7999 9.06578 100.22 9.61763C100.65 10.1695 100.982 10.6556 101.219 11.0761H101.455V1.07715H105.384V27.9862H101.547V24.846H101.219C100.982 25.2752 100.641 25.7657 100.194 26.3176C99.7561 26.8694 99.1517 27.3512 98.3808 27.7629C97.61 28.1746 96.6114 28.3804 95.3851 28.3804ZM96.2523 25.0299C97.3822 25.0299 98.337 24.7321 99.1166 24.1365C99.905 23.5321 100.501 22.6955 100.904 21.6269C101.315 20.5582 101.521 19.3144 101.521 17.8953C101.521 16.4938 101.32 15.2675 100.917 14.2164C100.514 13.1652 99.9225 12.3462 99.1429 11.7593C98.3633 11.1724 97.3998 10.879 96.2523 10.879C95.0697 10.879 94.0843 11.1856 93.2959 11.7987C92.5076 12.4119 91.912 13.2484 91.509 14.3083C91.1148 15.3682 90.9177 16.5639 90.9177 17.8953C90.9177 19.2443 91.1192 20.4575 91.5222 21.5349C91.9251 22.6123 92.5207 23.4664 93.3091 24.097C94.1062 24.719 95.0873 25.0299 96.2523 25.0299Z" fill="#202222"/>
<path d="M80.8299 19.6168V7.80469H84.7716V27.9865H80.9087V24.4915H80.6985C80.2342 25.5689 79.4897 26.4667 78.4648 27.185C77.4487 27.8945 76.183 28.2493 74.6676 28.2493C73.3712 28.2493 72.2237 27.9646 71.2251 27.3952C70.2353 26.8171 69.4557 25.9631 68.8863 24.8331C68.3257 23.7031 68.0454 22.306 68.0454 20.6417V7.80469H71.974V20.1687C71.974 21.5439 72.3551 22.6388 73.1171 23.4535C73.8792 24.2681 74.869 24.6754 76.0866 24.6754C76.8224 24.6754 77.5538 24.4915 78.2808 24.1236C79.0166 23.7557 79.6254 23.1995 80.1072 22.4549C80.5977 21.7103 80.8386 20.7643 80.8299 19.6168Z" fill="#202222"/>
<path d="M65.9198 7.80447V10.9579H54.896V7.80447H65.9198ZM57.8523 2.96924H61.7809V22.0605C61.7809 22.8226 61.8948 23.3963 62.1226 23.7817C62.3503 24.1584 62.6437 24.4168 63.0029 24.557C63.3708 24.6883 63.7693 24.754 64.1986 24.754C64.5139 24.754 64.7898 24.7321 65.0263 24.6883C65.2628 24.6445 65.4468 24.6095 65.5782 24.5832L66.2877 27.8286C66.0599 27.9162 65.7358 28.0038 65.3154 28.0914C64.8949 28.1878 64.3694 28.2403 63.7387 28.2491C62.7051 28.2666 61.7415 28.0826 60.8481 27.6972C59.9546 27.3118 59.2319 26.7162 58.6801 25.9103C58.1282 25.1044 57.8523 24.0927 57.8523 22.8751V2.96924Z" fill="#202222"/>
<path d="M54.005 12.7315L50.4442 13.3622C50.2953 12.9067 50.0588 12.4731 49.7347 12.0614C49.4194 11.6497 48.9902 11.3125 48.4471 11.0497C47.904 10.7869 47.2251 10.6555 46.4105 10.6555C45.2981 10.6555 44.3696 10.9051 43.625 11.4044C42.8804 11.895 42.5082 12.53 42.5082 13.3096C42.5082 13.9841 42.7578 14.5272 43.2571 14.9389C43.7564 15.3506 44.5623 15.6878 45.6747 15.9506L48.8807 16.6864C50.7377 17.1156 52.1217 17.7769 53.0327 18.6704C53.9437 19.5639 54.3992 20.7245 54.3992 22.1523C54.3992 23.3611 54.0488 24.4385 53.348 25.3845C52.656 26.3218 51.6881 27.0576 50.4442 27.5919C49.2092 28.1263 47.777 28.3934 46.1477 28.3934C43.8878 28.3934 42.0439 27.9117 40.6161 26.9481C39.1883 25.9758 38.3124 24.5962 37.9883 22.8093L41.7855 22.2311C42.022 23.221 42.5082 23.9699 43.244 24.4779C43.9798 24.9772 44.9389 25.2269 46.1215 25.2269C47.4091 25.2269 48.4383 24.9597 49.2092 24.4254C49.98 23.8823 50.3654 23.221 50.3654 22.4414C50.3654 21.8107 50.1289 21.2807 49.6559 20.8515C49.1916 20.4223 48.4777 20.0982 47.5142 19.8792L44.098 19.1303C42.2147 18.7011 40.822 18.0178 39.9197 17.0806C39.0263 16.1433 38.5795 14.9564 38.5795 13.5198C38.5795 12.3286 38.9124 11.2862 39.5781 10.3927C40.2438 9.49925 41.1636 8.80287 42.3374 8.30358C43.5111 7.79553 44.8557 7.5415 46.3711 7.5415C48.5522 7.5415 50.2691 8.01451 51.5217 8.96054C52.7743 9.8978 53.602 11.1548 54.005 12.7315Z" fill="#202222"/>
<path d="M26.9019 27.9865V7.80464H30.6991V11.0106H30.9093C31.2772 9.92444 31.9254 9.07039 32.8539 8.44846C33.7912 7.81778 34.8511 7.50244 36.0336 7.50244C36.2789 7.50244 36.5679 7.5112 36.9008 7.52872C37.2424 7.54624 37.5096 7.56814 37.7023 7.59442V11.3522C37.5446 11.3084 37.2643 11.2603 36.8614 11.2077C36.4584 11.1464 36.0555 11.1157 35.6526 11.1157C34.7241 11.1157 33.8963 11.3128 33.1693 11.707C32.451 12.0924 31.8816 12.6311 31.4612 13.3231C31.0407 14.0063 30.8305 14.7859 30.8305 15.6619V27.9865H26.9019Z" fill="#202222"/>
<path d="M19.908 27.9865V7.80469H23.8366V27.9865H19.908ZM21.892 4.6907C21.2088 4.6907 20.6219 4.46295 20.1313 4.00746C19.6496 3.54321 19.4087 2.99136 19.4087 2.35192C19.4087 1.70372 19.6496 1.15187 20.1313 0.696377C20.6219 0.232126 21.2088 0 21.892 0C22.5752 0 23.1577 0.232126 23.6395 0.696377C24.13 1.15187 24.3753 1.70372 24.3753 2.35192C24.3753 2.99136 24.13 3.54321 23.6395 4.00746C23.1577 4.46295 22.5752 4.6907 21.892 4.6907Z" fill="#202222"/>
<path d="M6.93546 28.4328C5.65658 28.4328 4.50033 28.1963 3.46671 27.7233C2.43309 27.2416 1.61408 26.5452 1.00968 25.6342C0.414033 24.7232 0.116211 23.6064 0.116211 22.2837C0.116211 21.145 0.335198 20.2077 0.773171 19.4719C1.21114 18.7361 1.80241 18.1536 2.54696 17.7244C3.29152 17.2952 4.12367 16.9711 5.04341 16.7521C5.96316 16.5331 6.90042 16.3667 7.8552 16.2528C9.06401 16.1126 10.0451 15.9988 10.7984 15.9112C11.5517 15.8148 12.0992 15.6615 12.4408 15.4513C12.7824 15.2411 12.9532 14.8995 12.9532 14.4264V14.3345C12.9532 13.187 12.6291 12.2979 11.9809 11.6672C11.3415 11.0365 10.3867 10.7212 9.11657 10.7212C7.79389 10.7212 6.75151 11.0146 5.98944 11.6015C5.23612 12.1796 4.71493 12.8235 4.42587 13.533L0.733754 12.6921C1.17173 11.4657 1.81117 10.4759 2.65208 9.72261C3.50175 8.96054 4.47843 8.40869 5.58212 8.06707C6.68581 7.71669 7.84644 7.5415 9.06401 7.5415C9.86988 7.5415 10.7239 7.63786 11.6262 7.83057C12.5371 8.01451 13.3868 8.35613 14.1752 8.85542C14.9723 9.35471 15.6249 10.0686 16.1329 10.9971C16.6409 11.9169 16.895 13.1125 16.895 14.5841V27.9861H13.0583V25.2269H12.9007C12.6466 25.7349 12.2656 26.2342 11.7575 26.7247C11.2495 27.2153 10.5969 27.6226 9.7998 27.9467C9.00269 28.2708 8.04791 28.4328 6.93546 28.4328ZM7.78951 25.2794C8.87568 25.2794 9.80418 25.0648 10.575 24.6356C11.3546 24.2064 11.9459 23.6458 12.3488 22.9538C12.7605 22.253 12.9664 21.5041 12.9664 20.707V18.1054C12.8262 18.2456 12.5547 18.377 12.1517 18.4996C11.7575 18.6135 11.3064 18.7142 10.7984 18.8018C10.2903 18.8806 9.79542 18.9551 9.31365 19.0252C8.83188 19.0865 8.42895 19.139 8.10485 19.1828C7.34277 19.2792 6.6464 19.4412 6.01571 19.669C5.39379 19.8967 4.8945 20.2252 4.51784 20.6544C4.14995 21.0749 3.966 21.6355 3.966 22.3362C3.966 23.3085 4.32514 24.0443 5.04341 24.5436C5.76169 25.0342 6.67705 25.2794 7.78951 25.2794Z" fill="#202222"/>
</svg>
