<svg width="135" height="29" viewBox="0 0 135 29" fill="none" xmlns="http://www.w3.org/2000/svg">
<path d="M124.708 28.3934C122.816 28.3934 121.165 27.9598 119.755 27.0926C118.345 26.2255 117.25 25.0123 116.47 23.4531C115.691 21.8939 115.301 20.0719 115.301 17.9872C115.301 15.8937 115.691 14.0629 116.47 12.495C117.25 10.927 118.345 9.70947 119.755 8.84229C121.165 7.9751 122.816 7.5415 124.708 7.5415C126.6 7.5415 128.252 7.9751 129.662 8.84229C131.072 9.70947 132.167 10.927 132.947 12.495C133.726 14.0629 134.116 15.8937 134.116 17.9872C134.116 20.0719 133.726 21.8939 132.947 23.4531C132.167 25.0123 131.072 26.2255 129.662 27.0926C128.252 27.9598 126.6 28.3934 124.708 28.3934ZM124.722 25.0955C125.948 25.0955 126.964 24.7714 127.77 24.1232C128.576 23.475 129.171 22.6122 129.557 21.5348C129.951 20.4573 130.148 19.2704 130.148 17.974C130.148 16.6864 129.951 15.5039 129.557 14.4264C129.171 13.3403 128.576 12.4687 127.77 11.8117C126.964 11.1548 125.948 10.8263 124.722 10.8263C123.487 10.8263 122.462 11.1548 121.647 11.8117C120.841 12.4687 120.241 13.3403 119.847 14.4264C119.462 15.5039 119.269 16.6864 119.269 17.974C119.269 19.2704 119.462 20.4573 119.847 21.5348C120.241 22.6122 120.841 23.475 121.647 24.1232C122.462 24.7714 123.487 25.0955 124.722 25.0955Z" fill="#BFC9CA"/>
<path d="M109.213 27.9865V7.80469H113.142V27.9865H109.213ZM111.197 4.6907C110.514 4.6907 109.927 4.46295 109.437 4.00746C108.955 3.54321 108.714 2.99136 108.714 2.35192C108.714 1.70372 108.955 1.15187 109.437 0.696377C109.927 0.232126 110.514 0 111.197 0C111.88 0 112.463 0.232126 112.945 0.696377C113.435 1.15187 113.68 1.70372 113.68 2.35192C113.68 2.99136 113.435 3.54321 112.945 4.00746C112.463 4.46295 111.88 4.6907 111.197 4.6907Z" fill="#BFC9CA"/>
<path d="M95.827 28.3804C94.1977 28.3804 92.7436 27.9643 91.4648 27.1322C90.1946 26.2913 89.1961 25.0956 88.469 23.5452C87.7507 21.986 87.3916 20.1159 87.3916 17.9347C87.3916 15.7536 87.7551 13.8879 88.4822 12.3374C89.218 10.787 90.2253 9.60011 91.5042 8.77672C92.7831 7.95333 94.2327 7.54164 95.8532 7.54164C97.1059 7.54164 98.1132 7.75187 98.8753 8.17232C99.6461 8.58401 100.242 9.06578 100.662 9.61763C101.091 10.1695 101.424 10.6556 101.661 11.0761H101.897V1.07715H105.826V27.9862H101.989V24.846H101.661C101.424 25.2752 101.083 25.7657 100.636 26.3176C100.198 26.8694 99.5935 27.3512 98.8227 27.7629C98.0519 28.1746 97.0533 28.3804 95.827 28.3804ZM96.6942 25.0299C97.8241 25.0299 98.7789 24.7321 99.5585 24.1365C100.347 23.5321 100.943 22.6955 101.345 21.6269C101.757 20.5582 101.963 19.3144 101.963 17.8953C101.963 16.4938 101.762 15.2675 101.359 14.2164C100.956 13.1652 100.364 12.3462 99.5848 11.7593C98.8052 11.1724 97.8417 10.879 96.6942 10.879C95.5116 10.879 94.5262 11.1856 93.7378 11.7987C92.9495 12.4119 92.3538 13.2484 91.9509 14.3083C91.5567 15.3682 91.3596 16.5639 91.3596 17.8953C91.3596 19.2443 91.5611 20.4575 91.9641 21.5349C92.367 22.6123 92.9626 23.4664 93.751 24.097C94.5481 24.719 95.5292 25.0299 96.6942 25.0299Z" fill="#BFC9CA"/>
<path d="M81.2718 19.6168V7.80469H85.2135V27.9865H81.3506V24.4915H81.1404C80.6761 25.5689 79.9316 26.4667 78.9067 27.185C77.8906 27.8945 76.6248 28.2493 75.1095 28.2493C73.8131 28.2493 72.6656 27.9646 71.667 27.3952C70.6772 26.8171 69.8976 25.9631 69.3282 24.8331C68.7676 23.7031 68.4873 22.306 68.4873 20.6417V7.80469H72.4159V20.1687C72.4159 21.5439 72.797 22.6389 73.559 23.4535C74.3211 24.2681 75.3109 24.6754 76.5285 24.6754C77.2643 24.6754 77.9957 24.4915 78.7227 24.1236C79.4585 23.7557 80.0673 23.1995 80.5491 22.4549C81.0396 21.7103 81.2805 20.7643 81.2718 19.6168Z" fill="#BFC9CA"/>
<path d="M66.3617 7.80447V10.9579H55.3379V7.80447H66.3617ZM58.2942 2.96924H62.2228V22.0605C62.2228 22.8226 62.3367 23.3963 62.5645 23.7817C62.7922 24.1584 63.0856 24.4168 63.4448 24.557C63.8127 24.6883 64.2112 24.754 64.6404 24.754C64.9558 24.754 65.2317 24.7321 65.4682 24.6883C65.7047 24.6445 65.8887 24.6095 66.0201 24.5832L66.7296 27.8286C66.5018 27.9162 66.1777 28.0038 65.7573 28.0914C65.3368 28.1878 64.8113 28.2403 64.1806 28.2491C63.147 28.2666 62.1834 28.0826 61.2899 27.6972C60.3965 27.3118 59.6738 26.7162 59.122 25.9103C58.5701 25.1044 58.2942 24.0927 58.2942 22.8751V2.96924Z" fill="#BFC9CA"/>
<path d="M54.4469 12.7315L50.8861 13.3622C50.7372 12.9067 50.5007 12.4731 50.1766 12.0614C49.8613 11.6497 49.4321 11.3125 48.889 11.0497C48.3459 10.7869 47.667 10.6555 46.8524 10.6555C45.74 10.6555 44.8114 10.9051 44.0669 11.4044C43.3223 11.895 42.9501 12.53 42.9501 13.3096C42.9501 13.9841 43.1997 14.5272 43.699 14.9389C44.1983 15.3506 45.0042 15.6878 46.1166 15.9506L49.3226 16.6864C51.1796 17.1156 52.5636 17.7769 53.4746 18.6704C54.3856 19.5639 54.841 20.7245 54.841 22.1523C54.841 23.3611 54.4907 24.4385 53.7899 25.3845C53.0979 26.3218 52.13 27.0576 50.8861 27.5919C49.6511 28.1263 48.2189 28.3934 46.5896 28.3934C44.3297 28.3934 42.4858 27.9116 41.058 26.9481C39.6302 25.9758 38.7543 24.5962 38.4302 22.8093L42.2274 22.2311C42.4639 23.221 42.9501 23.9699 43.6859 24.4779C44.4217 24.9772 45.3808 25.2269 46.5633 25.2269C47.851 25.2269 48.8802 24.9597 49.6511 24.4254C50.4219 23.8823 50.8073 23.221 50.8073 22.4414C50.8073 21.8107 50.5708 21.2807 50.0978 20.8515C49.6335 20.4223 48.9196 20.0982 47.9561 19.8792L44.5399 19.1303C42.6566 18.7011 41.2639 18.0178 40.3616 17.0806C39.4682 16.1433 39.0214 14.9564 39.0214 13.5198C39.0214 12.3286 39.3543 11.2862 40.02 10.3927C40.6857 9.49925 41.6055 8.80287 42.7793 8.30358C43.953 7.79553 45.2976 7.5415 46.813 7.5415C48.9941 7.5415 50.711 8.01451 51.9636 8.96054C53.2162 9.8978 54.0439 11.1548 54.4469 12.7315Z" fill="#BFC9CA"/>
<path d="M27.3438 27.9865V7.80464H31.141V11.0106H31.3512C31.7191 9.92444 32.3673 9.07039 33.2958 8.44846C34.2331 7.81778 35.293 7.50244 36.4755 7.50244C36.7208 7.50244 37.0098 7.5112 37.3427 7.52872C37.6843 7.54624 37.9515 7.56814 38.1442 7.59442V11.3522C37.9865 11.3084 37.7062 11.2603 37.3033 11.2077C36.9003 11.1464 36.4974 11.1157 36.0945 11.1157C35.166 11.1157 34.3382 11.3128 33.6112 11.707C32.8929 12.0924 32.3235 12.6311 31.9031 13.3231C31.4826 14.0063 31.2724 14.7859 31.2724 15.6619V27.9865H27.3438Z" fill="#BFC9CA"/>
<path d="M20.3499 27.9865V7.80469H24.2785V27.9865H20.3499ZM22.3339 4.6907C21.6507 4.6907 21.0638 4.46295 20.5732 4.00746C20.0915 3.54321 19.8506 2.99136 19.8506 2.35192C19.8506 1.70372 20.0915 1.15187 20.5732 0.696377C21.0638 0.232126 21.6507 0 22.3339 0C23.0171 0 23.5996 0.232126 24.0814 0.696377C24.5719 1.15187 24.8172 1.70372 24.8172 2.35192C24.8172 2.99136 24.5719 3.54321 24.0814 4.00746C23.5996 4.46295 23.0171 4.6907 22.3339 4.6907Z" fill="#BFC9CA"/>
<path d="M7.37735 28.4328C6.09847 28.4328 4.94222 28.1963 3.9086 27.7233C2.87499 27.2416 2.05597 26.5452 1.45157 25.6342C0.855928 24.7232 0.558105 23.6064 0.558105 22.2837C0.558105 21.145 0.777092 20.2077 1.21507 19.4719C1.65304 18.7361 2.2443 18.1536 2.98886 17.7244C3.73341 17.2952 4.56556 16.9711 5.48531 16.7521C6.40505 16.5331 7.34231 16.3667 8.2971 16.2528C9.5059 16.1126 10.487 15.9988 11.2403 15.9112C11.9936 15.8148 12.5411 15.6615 12.8827 15.4513C13.2243 15.2411 13.3951 14.8995 13.3951 14.4264V14.3345C13.3951 13.187 13.071 12.2979 12.4228 11.6672C11.7834 11.0365 10.8286 10.7212 9.55846 10.7212C8.23578 10.7212 7.1934 11.0146 6.43133 11.6015C5.67802 12.1796 5.15683 12.8235 4.86776 13.533L1.17565 12.6921C1.61362 11.4657 2.25306 10.4759 3.09397 9.72261C3.94364 8.96054 4.92032 8.40869 6.02401 8.06707C7.12771 7.71669 8.28834 7.5415 9.5059 7.5415C10.3118 7.5415 11.1658 7.63786 12.068 7.83057C12.979 8.01451 13.8287 8.35613 14.6171 8.85542C15.4142 9.35471 16.0667 10.0686 16.5748 10.9971C17.0828 11.9169 17.3369 13.1125 17.3369 14.5841V27.9861H13.5002V25.2269H13.3426C13.0885 25.7349 12.7075 26.2342 12.1994 26.7247C11.6914 27.2153 11.0388 27.6226 10.2417 27.9467C9.44459 28.2708 8.48981 28.4328 7.37735 28.4328ZM8.2314 25.2794C9.31758 25.2794 10.2461 25.0648 11.0169 24.6356C11.7965 24.2064 12.3878 23.6458 12.7907 22.9538C13.2024 22.253 13.4082 21.5041 13.4082 20.707V18.1054C13.2681 18.2456 12.9966 18.377 12.5936 18.4996C12.1994 18.6135 11.7483 18.7142 11.2403 18.8018C10.7322 18.8806 10.2373 18.9551 9.75555 19.0252C9.27378 19.0865 8.87084 19.139 8.54674 19.1828C7.78467 19.2792 7.08829 19.4412 6.45761 19.669C5.83569 19.8967 5.3364 20.2252 4.95974 20.6544C4.59184 21.0749 4.40789 21.6355 4.40789 22.3362C4.40789 23.3085 4.76703 24.0443 5.48531 24.5436C6.20358 25.0342 7.11895 25.2794 8.2314 25.2794Z" fill="#BFC9CA"/>
</svg>
